<mxfile host="Electron" modified="2025-07-03T21:44:30.918Z" agent="Mozilla/5.0 (Windows NT 10.0; Win64; x64) AppleWebKit/537.36 (KHTML, like Gecko) draw.io/22.1.18 Chrome/120.0.6099.199 Electron/28.1.2 Safari/537.36" etag="rKv1TLympvxKUwgVDD9f" version="22.1.18" type="device" pages="9">
  <diagram name="Page-1" id="2TWdcrjXYiqF1Y187AKo">
    <mxGraphModel dx="794" dy="1611" grid="1" gridSize="10" guides="1" tooltips="1" connect="1" arrows="1" fold="1" page="1" pageScale="1" pageWidth="850" pageHeight="1100" math="0" shadow="0">
      <root>
        <mxCell id="0" />
        <mxCell id="1" parent="0" />
        <mxCell id="9_6qScHIR85B6fDYsmqg-1" value="User Correlation Service" style="rounded=0;whiteSpace=wrap;html=1;" vertex="1" parent="1">
          <mxGeometry x="360" y="40" width="80" height="40" as="geometry" />
        </mxCell>
        <mxCell id="9_6qScHIR85B6fDYsmqg-2" value="IdP Broker" style="rounded=0;whiteSpace=wrap;html=1;" vertex="1" parent="1">
          <mxGeometry x="200" y="120" width="80" height="40" as="geometry" />
        </mxCell>
        <mxCell id="9_6qScHIR85B6fDYsmqg-3" value="IdP Service" style="rounded=0;whiteSpace=wrap;html=1;" vertex="1" parent="1">
          <mxGeometry x="40" y="80" width="80" height="40" as="geometry" />
        </mxCell>
        <mxCell id="9_6qScHIR85B6fDYsmqg-4" value="IdP Service" style="rounded=0;whiteSpace=wrap;html=1;" vertex="1" parent="1">
          <mxGeometry x="40" y="160" width="80" height="40" as="geometry" />
        </mxCell>
        <mxCell id="9_6qScHIR85B6fDYsmqg-11" value="Relying Service" style="rounded=0;whiteSpace=wrap;html=1;" vertex="1" parent="1">
          <mxGeometry x="480" y="120" width="80" height="40" as="geometry" />
        </mxCell>
        <mxCell id="9_6qScHIR85B6fDYsmqg-12" value="" style="rounded=0;orthogonalLoop=1;jettySize=auto;html=1;endArrow=halfCircle;endFill=0;endSize=6;strokeWidth=1;sketch=0;exitX=0;exitY=0.5;exitDx=0;exitDy=0;" edge="1" target="9_6qScHIR85B6fDYsmqg-14" parent="1" source="9_6qScHIR85B6fDYsmqg-11">
          <mxGeometry relative="1" as="geometry">
            <mxPoint x="445" y="305" as="sourcePoint" />
          </mxGeometry>
        </mxCell>
        <mxCell id="9_6qScHIR85B6fDYsmqg-13" value="" style="rounded=0;orthogonalLoop=1;jettySize=auto;html=1;endArrow=oval;endFill=0;sketch=0;sourcePerimeterSpacing=0;targetPerimeterSpacing=0;endSize=10;exitX=1;exitY=0.5;exitDx=0;exitDy=0;" edge="1" target="9_6qScHIR85B6fDYsmqg-14" parent="1" source="9_6qScHIR85B6fDYsmqg-2">
          <mxGeometry relative="1" as="geometry">
            <mxPoint x="405" y="305" as="sourcePoint" />
          </mxGeometry>
        </mxCell>
        <mxCell id="9_6qScHIR85B6fDYsmqg-14" value="" style="ellipse;whiteSpace=wrap;html=1;align=center;aspect=fixed;fillColor=none;strokeColor=none;resizable=0;perimeter=centerPerimeter;rotatable=0;allowArrows=0;points=[];outlineConnect=1;" vertex="1" parent="1">
          <mxGeometry x="290" y="135" width="10" height="10" as="geometry" />
        </mxCell>
        <mxCell id="9_6qScHIR85B6fDYsmqg-15" value="" style="sketch=0;outlineConnect=0;fontColor=#232F3E;gradientColor=none;fillColor=#232F3D;strokeColor=none;dashed=0;verticalLabelPosition=bottom;verticalAlign=top;align=center;html=1;fontSize=12;fontStyle=0;aspect=fixed;pointerEvents=1;shape=mxgraph.aws4.user;" vertex="1" parent="1">
          <mxGeometry x="350" y="-110" width="20" height="20" as="geometry" />
        </mxCell>
        <mxCell id="9_6qScHIR85B6fDYsmqg-16" value="User &lt;br&gt;Agent" style="rounded=0;whiteSpace=wrap;html=1;" vertex="1" parent="1">
          <mxGeometry x="360" y="-40" width="80" height="40" as="geometry" />
        </mxCell>
        <mxCell id="9_6qScHIR85B6fDYsmqg-17" value="" style="rounded=0;orthogonalLoop=1;jettySize=auto;html=1;endArrow=halfCircle;endFill=0;endSize=6;strokeWidth=1;sketch=0;exitX=0;exitY=0.5;exitDx=0;exitDy=0;" edge="1" target="9_6qScHIR85B6fDYsmqg-19" parent="1" source="9_6qScHIR85B6fDYsmqg-16">
          <mxGeometry relative="1" as="geometry">
            <mxPoint x="250" y="60" as="sourcePoint" />
            <Array as="points">
              <mxPoint x="240" y="-20" />
            </Array>
          </mxGeometry>
        </mxCell>
        <mxCell id="9_6qScHIR85B6fDYsmqg-18" value="" style="rounded=0;orthogonalLoop=1;jettySize=auto;html=1;endArrow=oval;endFill=0;sketch=0;sourcePerimeterSpacing=0;targetPerimeterSpacing=0;endSize=10;exitX=0.5;exitY=0;exitDx=0;exitDy=0;" edge="1" target="9_6qScHIR85B6fDYsmqg-19" parent="1" source="9_6qScHIR85B6fDYsmqg-2">
          <mxGeometry relative="1" as="geometry">
            <mxPoint x="210" y="60" as="sourcePoint" />
          </mxGeometry>
        </mxCell>
        <mxCell id="9_6qScHIR85B6fDYsmqg-19" value="" style="ellipse;whiteSpace=wrap;html=1;align=center;aspect=fixed;fillColor=none;strokeColor=none;resizable=0;perimeter=centerPerimeter;rotatable=0;allowArrows=0;points=[];outlineConnect=1;" vertex="1" parent="1">
          <mxGeometry x="235" y="95" width="10" height="10" as="geometry" />
        </mxCell>
        <mxCell id="9_6qScHIR85B6fDYsmqg-20" value="" style="rounded=0;orthogonalLoop=1;jettySize=auto;html=1;endArrow=halfCircle;endFill=0;endSize=6;strokeWidth=1;sketch=0;exitX=1;exitY=0.5;exitDx=0;exitDy=0;" edge="1" target="9_6qScHIR85B6fDYsmqg-22" parent="1" source="9_6qScHIR85B6fDYsmqg-16">
          <mxGeometry relative="1" as="geometry">
            <mxPoint x="540" y="100" as="sourcePoint" />
            <Array as="points">
              <mxPoint x="520" y="-20" />
            </Array>
          </mxGeometry>
        </mxCell>
        <mxCell id="9_6qScHIR85B6fDYsmqg-21" value="" style="rounded=0;orthogonalLoop=1;jettySize=auto;html=1;endArrow=oval;endFill=0;sketch=0;sourcePerimeterSpacing=0;targetPerimeterSpacing=0;endSize=10;exitX=0.5;exitY=0;exitDx=0;exitDy=0;" edge="1" target="9_6qScHIR85B6fDYsmqg-22" parent="1" source="9_6qScHIR85B6fDYsmqg-11">
          <mxGeometry relative="1" as="geometry">
            <mxPoint x="630" y="60" as="sourcePoint" />
          </mxGeometry>
        </mxCell>
        <mxCell id="9_6qScHIR85B6fDYsmqg-22" value="" style="ellipse;whiteSpace=wrap;html=1;align=center;aspect=fixed;fillColor=none;strokeColor=none;resizable=0;perimeter=centerPerimeter;rotatable=0;allowArrows=0;points=[];outlineConnect=1;" vertex="1" parent="1">
          <mxGeometry x="515" y="95" width="10" height="10" as="geometry" />
        </mxCell>
        <mxCell id="9_6qScHIR85B6fDYsmqg-23" value="" style="rounded=0;orthogonalLoop=1;jettySize=auto;html=1;endArrow=halfCircle;endFill=0;endSize=6;strokeWidth=1;sketch=0;exitX=0;exitY=0.5;exitDx=0;exitDy=0;" edge="1" target="9_6qScHIR85B6fDYsmqg-25" parent="1" source="9_6qScHIR85B6fDYsmqg-1">
          <mxGeometry relative="1" as="geometry">
            <mxPoint x="410" y="255" as="sourcePoint" />
            <Array as="points">
              <mxPoint x="340" y="60" />
              <mxPoint x="340" y="140" />
            </Array>
          </mxGeometry>
        </mxCell>
        <mxCell id="9_6qScHIR85B6fDYsmqg-24" value="" style="rounded=0;orthogonalLoop=1;jettySize=auto;html=1;endArrow=oval;endFill=0;sketch=0;sourcePerimeterSpacing=0;targetPerimeterSpacing=0;endSize=10;exitX=1;exitY=0.5;exitDx=0;exitDy=0;" edge="1" target="9_6qScHIR85B6fDYsmqg-25" parent="1" source="9_6qScHIR85B6fDYsmqg-2">
          <mxGeometry relative="1" as="geometry">
            <mxPoint x="370" y="255" as="sourcePoint" />
          </mxGeometry>
        </mxCell>
        <mxCell id="9_6qScHIR85B6fDYsmqg-25" value="" style="ellipse;whiteSpace=wrap;html=1;align=center;aspect=fixed;fillColor=none;strokeColor=none;resizable=0;perimeter=centerPerimeter;rotatable=0;allowArrows=0;points=[];outlineConnect=1;" vertex="1" parent="1">
          <mxGeometry x="290" y="135" width="10" height="10" as="geometry" />
        </mxCell>
        <mxCell id="9_6qScHIR85B6fDYsmqg-26" value="" style="rounded=0;orthogonalLoop=1;jettySize=auto;html=1;endArrow=halfCircle;endFill=0;endSize=6;strokeWidth=1;sketch=0;exitX=0.5;exitY=1;exitDx=0;exitDy=0;" edge="1" target="9_6qScHIR85B6fDYsmqg-28" parent="1" source="9_6qScHIR85B6fDYsmqg-16">
          <mxGeometry relative="1" as="geometry">
            <mxPoint x="525" y="285" as="sourcePoint" />
          </mxGeometry>
        </mxCell>
        <mxCell id="9_6qScHIR85B6fDYsmqg-27" value="" style="rounded=0;orthogonalLoop=1;jettySize=auto;html=1;endArrow=oval;endFill=0;sketch=0;sourcePerimeterSpacing=0;targetPerimeterSpacing=0;endSize=10;exitX=0.5;exitY=0;exitDx=0;exitDy=0;" edge="1" target="9_6qScHIR85B6fDYsmqg-28" parent="1" source="9_6qScHIR85B6fDYsmqg-1">
          <mxGeometry relative="1" as="geometry">
            <mxPoint x="485" y="245" as="sourcePoint" />
          </mxGeometry>
        </mxCell>
        <mxCell id="9_6qScHIR85B6fDYsmqg-28" value="" style="ellipse;whiteSpace=wrap;html=1;align=center;aspect=fixed;fillColor=none;strokeColor=none;resizable=0;perimeter=centerPerimeter;rotatable=0;allowArrows=0;points=[];outlineConnect=1;" vertex="1" parent="1">
          <mxGeometry x="395" y="15" width="10" height="10" as="geometry" />
        </mxCell>
        <mxCell id="9_6qScHIR85B6fDYsmqg-29" value="" style="rounded=0;orthogonalLoop=1;jettySize=auto;html=1;endArrow=halfCircle;endFill=0;endSize=6;strokeWidth=1;sketch=0;exitX=0.25;exitY=0;exitDx=0;exitDy=0;" edge="1" target="9_6qScHIR85B6fDYsmqg-31" parent="1" source="9_6qScHIR85B6fDYsmqg-11">
          <mxGeometry relative="1" as="geometry">
            <mxPoint x="430" y="155" as="sourcePoint" />
            <Array as="points">
              <mxPoint x="500" y="60" />
            </Array>
          </mxGeometry>
        </mxCell>
        <mxCell id="9_6qScHIR85B6fDYsmqg-30" value="" style="rounded=0;orthogonalLoop=1;jettySize=auto;html=1;endArrow=oval;endFill=0;sketch=0;sourcePerimeterSpacing=0;targetPerimeterSpacing=0;endSize=10;exitX=1;exitY=0.5;exitDx=0;exitDy=0;" edge="1" target="9_6qScHIR85B6fDYsmqg-31" parent="1" source="9_6qScHIR85B6fDYsmqg-1">
          <mxGeometry relative="1" as="geometry">
            <mxPoint x="390" y="155" as="sourcePoint" />
          </mxGeometry>
        </mxCell>
        <mxCell id="9_6qScHIR85B6fDYsmqg-31" value="" style="ellipse;whiteSpace=wrap;html=1;align=center;aspect=fixed;fillColor=none;strokeColor=none;resizable=0;perimeter=centerPerimeter;rotatable=0;allowArrows=0;points=[];outlineConnect=1;" vertex="1" parent="1">
          <mxGeometry x="455" y="55" width="10" height="10" as="geometry" />
        </mxCell>
        <mxCell id="9_6qScHIR85B6fDYsmqg-32" value="User Context Service" style="rounded=0;whiteSpace=wrap;html=1;" vertex="1" parent="1">
          <mxGeometry x="360" y="200" width="80" height="40" as="geometry" />
        </mxCell>
        <mxCell id="9_6qScHIR85B6fDYsmqg-33" value="" style="rounded=0;orthogonalLoop=1;jettySize=auto;html=1;endArrow=halfCircle;endFill=0;endSize=6;strokeWidth=1;sketch=0;exitX=0.25;exitY=1;exitDx=0;exitDy=0;" edge="1" target="9_6qScHIR85B6fDYsmqg-35" parent="1" source="9_6qScHIR85B6fDYsmqg-11">
          <mxGeometry relative="1" as="geometry">
            <mxPoint x="570" y="305" as="sourcePoint" />
            <Array as="points">
              <mxPoint x="500" y="220" />
            </Array>
          </mxGeometry>
        </mxCell>
        <mxCell id="9_6qScHIR85B6fDYsmqg-34" value="" style="rounded=0;orthogonalLoop=1;jettySize=auto;html=1;endArrow=oval;endFill=0;sketch=0;sourcePerimeterSpacing=0;targetPerimeterSpacing=0;endSize=10;exitX=1;exitY=0.5;exitDx=0;exitDy=0;" edge="1" target="9_6qScHIR85B6fDYsmqg-35" parent="1" source="9_6qScHIR85B6fDYsmqg-32">
          <mxGeometry relative="1" as="geometry">
            <mxPoint x="530" y="305" as="sourcePoint" />
          </mxGeometry>
        </mxCell>
        <mxCell id="9_6qScHIR85B6fDYsmqg-35" value="" style="ellipse;whiteSpace=wrap;html=1;align=center;aspect=fixed;fillColor=none;strokeColor=none;resizable=0;perimeter=centerPerimeter;rotatable=0;allowArrows=0;points=[];outlineConnect=1;" vertex="1" parent="1">
          <mxGeometry x="455" y="215" width="10" height="10" as="geometry" />
        </mxCell>
        <mxCell id="9_6qScHIR85B6fDYsmqg-36" value="" style="rounded=0;orthogonalLoop=1;jettySize=auto;html=1;endArrow=halfCircle;endFill=0;endSize=6;strokeWidth=1;sketch=0;exitX=0;exitY=0.5;exitDx=0;exitDy=0;" edge="1" target="9_6qScHIR85B6fDYsmqg-38" parent="1" source="9_6qScHIR85B6fDYsmqg-32">
          <mxGeometry relative="1" as="geometry">
            <mxPoint x="290" y="325" as="sourcePoint" />
            <Array as="points">
              <mxPoint x="340" y="220" />
              <mxPoint x="340" y="140" />
            </Array>
          </mxGeometry>
        </mxCell>
        <mxCell id="9_6qScHIR85B6fDYsmqg-37" value="" style="rounded=0;orthogonalLoop=1;jettySize=auto;html=1;endArrow=oval;endFill=0;sketch=0;sourcePerimeterSpacing=0;targetPerimeterSpacing=0;endSize=10;exitX=1;exitY=0.5;exitDx=0;exitDy=0;" edge="1" target="9_6qScHIR85B6fDYsmqg-38" parent="1" source="9_6qScHIR85B6fDYsmqg-2">
          <mxGeometry relative="1" as="geometry">
            <mxPoint x="250" y="325" as="sourcePoint" />
          </mxGeometry>
        </mxCell>
        <mxCell id="9_6qScHIR85B6fDYsmqg-38" value="" style="ellipse;whiteSpace=wrap;html=1;align=center;aspect=fixed;fillColor=none;strokeColor=none;resizable=0;perimeter=centerPerimeter;rotatable=0;allowArrows=0;points=[];outlineConnect=1;" vertex="1" parent="1">
          <mxGeometry x="290" y="135" width="10" height="10" as="geometry" />
        </mxCell>
        <mxCell id="9_6qScHIR85B6fDYsmqg-40" value="2" style="rounded=1;fillColor=#999999;strokeColor=none;html=1;fontColor=#ffffff;align=center;verticalAlign=middle;whiteSpace=wrap;fontSize=14;fontStyle=0;arcSize=50;sketch=0;" vertex="1" parent="1">
          <mxGeometry x="250" y="90" width="20" height="20" as="geometry" />
        </mxCell>
        <mxCell id="9_6qScHIR85B6fDYsmqg-41" value="3" style="rounded=1;fillColor=#999999;strokeColor=none;html=1;fontColor=#ffffff;align=center;verticalAlign=middle;whiteSpace=wrap;fontSize=14;fontStyle=0;arcSize=50;sketch=0;" vertex="1" parent="1">
          <mxGeometry x="130" y="190" width="20" height="20" as="geometry" />
        </mxCell>
        <mxCell id="9_6qScHIR85B6fDYsmqg-42" value="1" style="rounded=1;fillColor=#999999;strokeColor=none;html=1;fontColor=#ffffff;align=center;verticalAlign=middle;whiteSpace=wrap;fontSize=14;fontStyle=0;arcSize=50;sketch=0;" vertex="1" parent="1">
          <mxGeometry x="360" y="10" width="20" height="20" as="geometry" />
        </mxCell>
        <mxCell id="9_6qScHIR85B6fDYsmqg-43" value="a" style="rounded=1;fillColor=#999999;strokeColor=none;html=1;fontColor=#ffffff;align=center;verticalAlign=middle;whiteSpace=wrap;fontSize=14;fontStyle=0;arcSize=50;sketch=0;" vertex="1" parent="1">
          <mxGeometry x="530" y="90" width="20" height="20" as="geometry" />
        </mxCell>
        <mxCell id="9_6qScHIR85B6fDYsmqg-47" value="b" style="rounded=1;fillColor=#999999;strokeColor=none;html=1;fontColor=#ffffff;align=center;verticalAlign=middle;whiteSpace=wrap;fontSize=14;fontStyle=0;arcSize=50;sketch=0;" vertex="1" parent="1">
          <mxGeometry x="450" y="30" width="20" height="20" as="geometry" />
        </mxCell>
        <mxCell id="9_6qScHIR85B6fDYsmqg-48" value="" style="rounded=0;orthogonalLoop=1;jettySize=auto;html=1;endArrow=halfCircle;endFill=0;endSize=6;strokeWidth=1;sketch=0;exitX=0;exitY=0.5;exitDx=0;exitDy=0;fillColor=#f8cecc;strokeColor=#b85450;dashed=1;" edge="1" target="9_6qScHIR85B6fDYsmqg-50" parent="1" source="9_6qScHIR85B6fDYsmqg-2">
          <mxGeometry relative="1" as="geometry">
            <mxPoint x="160" y="100" as="sourcePoint" />
            <Array as="points">
              <mxPoint x="180" y="140" />
              <mxPoint x="180" y="100" />
            </Array>
          </mxGeometry>
        </mxCell>
        <mxCell id="9_6qScHIR85B6fDYsmqg-49" value="" style="rounded=0;orthogonalLoop=1;jettySize=auto;html=1;endArrow=oval;endFill=0;sketch=0;sourcePerimeterSpacing=0;targetPerimeterSpacing=0;endSize=10;fillColor=#f8cecc;strokeColor=#b85450;dashed=1;" edge="1" target="9_6qScHIR85B6fDYsmqg-50" parent="1">
          <mxGeometry relative="1" as="geometry">
            <mxPoint x="120" y="100" as="sourcePoint" />
          </mxGeometry>
        </mxCell>
        <mxCell id="9_6qScHIR85B6fDYsmqg-50" value="" style="ellipse;whiteSpace=wrap;html=1;align=center;aspect=fixed;fillColor=#f8cecc;strokeColor=#b85450;resizable=0;perimeter=centerPerimeter;rotatable=0;allowArrows=0;points=[];outlineConnect=1;dashed=1;" vertex="1" parent="1">
          <mxGeometry x="135" y="95" width="10" height="10" as="geometry" />
        </mxCell>
        <mxCell id="9_6qScHIR85B6fDYsmqg-51" value="" style="rounded=0;orthogonalLoop=1;jettySize=auto;html=1;endArrow=halfCircle;endFill=0;endSize=6;strokeWidth=1;sketch=0;exitX=0;exitY=0.5;exitDx=0;exitDy=0;fillColor=#d5e8d4;strokeColor=#82b366;" edge="1" parent="1" target="9_6qScHIR85B6fDYsmqg-53" source="9_6qScHIR85B6fDYsmqg-2">
          <mxGeometry relative="1" as="geometry">
            <mxPoint x="160" y="180" as="sourcePoint" />
            <Array as="points">
              <mxPoint x="180" y="140" />
              <mxPoint x="180" y="180" />
            </Array>
          </mxGeometry>
        </mxCell>
        <mxCell id="9_6qScHIR85B6fDYsmqg-52" value="" style="rounded=0;orthogonalLoop=1;jettySize=auto;html=1;endArrow=oval;endFill=0;sketch=0;sourcePerimeterSpacing=0;targetPerimeterSpacing=0;endSize=10;fillColor=#d5e8d4;strokeColor=#82b366;" edge="1" parent="1" target="9_6qScHIR85B6fDYsmqg-53">
          <mxGeometry relative="1" as="geometry">
            <mxPoint x="120" y="180" as="sourcePoint" />
          </mxGeometry>
        </mxCell>
        <mxCell id="9_6qScHIR85B6fDYsmqg-53" value="" style="ellipse;whiteSpace=wrap;html=1;align=center;aspect=fixed;fillColor=#d5e8d4;strokeColor=#82b366;resizable=0;perimeter=centerPerimeter;rotatable=0;allowArrows=0;points=[];outlineConnect=1;" vertex="1" parent="1">
          <mxGeometry x="135" y="175" width="10" height="10" as="geometry" />
        </mxCell>
        <mxCell id="9_6qScHIR85B6fDYsmqg-54" value="c" style="rounded=1;fillColor=#999999;strokeColor=none;html=1;fontColor=#ffffff;align=center;verticalAlign=middle;whiteSpace=wrap;fontSize=14;fontStyle=0;arcSize=50;sketch=0;" vertex="1" parent="1">
          <mxGeometry x="450" y="190" width="20" height="20" as="geometry" />
        </mxCell>
      </root>
    </mxGraphModel>
  </diagram>
  <diagram id="7ITjZ_us0Xr3aCvrlGML" name="Page-2">
    <mxGraphModel dx="794" dy="511" grid="1" gridSize="10" guides="1" tooltips="1" connect="1" arrows="1" fold="1" page="1" pageScale="1" pageWidth="850" pageHeight="1100" math="0" shadow="0">
      <root>
        <mxCell id="0" />
        <mxCell id="1" parent="0" />
        <mxCell id="WfbTtiC1FSOQRcMJfkay-1" value="Persona" style="rounded=0;whiteSpace=wrap;html=1;" vertex="1" parent="1">
          <mxGeometry x="200" y="200" width="80" height="40" as="geometry" />
        </mxCell>
        <mxCell id="WfbTtiC1FSOQRcMJfkay-10" value="has" style="edgeStyle=orthogonalEdgeStyle;rounded=0;orthogonalLoop=1;jettySize=auto;html=1;exitX=1;exitY=0.5;exitDx=0;exitDy=0;entryX=0;entryY=0.5;entryDx=0;entryDy=0;dashed=1;" edge="1" parent="1" source="WfbTtiC1FSOQRcMJfkay-2" target="WfbTtiC1FSOQRcMJfkay-6">
          <mxGeometry relative="1" as="geometry" />
        </mxCell>
        <mxCell id="WfbTtiC1FSOQRcMJfkay-13" value="has" style="edgeStyle=orthogonalEdgeStyle;rounded=0;orthogonalLoop=1;jettySize=auto;html=1;exitX=0.5;exitY=1;exitDx=0;exitDy=0;entryX=0.5;entryY=0;entryDx=0;entryDy=0;" edge="1" parent="1" source="WfbTtiC1FSOQRcMJfkay-2" target="WfbTtiC1FSOQRcMJfkay-12">
          <mxGeometry relative="1" as="geometry" />
        </mxCell>
        <mxCell id="WfbTtiC1FSOQRcMJfkay-2" value="Persona" style="rounded=0;whiteSpace=wrap;html=1;" vertex="1" parent="1">
          <mxGeometry x="200" y="200" width="80" height="40" as="geometry" />
        </mxCell>
        <mxCell id="WfbTtiC1FSOQRcMJfkay-4" value="has" style="edgeStyle=orthogonalEdgeStyle;rounded=0;orthogonalLoop=1;jettySize=auto;html=1;entryX=0;entryY=0.5;entryDx=0;entryDy=0;" edge="1" parent="1" source="WfbTtiC1FSOQRcMJfkay-3" target="WfbTtiC1FSOQRcMJfkay-2">
          <mxGeometry relative="1" as="geometry" />
        </mxCell>
        <mxCell id="WfbTtiC1FSOQRcMJfkay-3" value="Person" style="rounded=0;whiteSpace=wrap;html=1;" vertex="1" parent="1">
          <mxGeometry x="80" y="200" width="80" height="40" as="geometry" />
        </mxCell>
        <mxCell id="WfbTtiC1FSOQRcMJfkay-9" value="has" style="edgeStyle=orthogonalEdgeStyle;rounded=0;orthogonalLoop=1;jettySize=auto;html=1;exitX=0.5;exitY=1;exitDx=0;exitDy=0;entryX=0.5;entryY=0;entryDx=0;entryDy=0;dashed=1;" edge="1" parent="1" source="WfbTtiC1FSOQRcMJfkay-5" target="WfbTtiC1FSOQRcMJfkay-8">
          <mxGeometry relative="1" as="geometry" />
        </mxCell>
        <mxCell id="WfbTtiC1FSOQRcMJfkay-5" value="" style="rounded=0;whiteSpace=wrap;html=1;dashed=1;" vertex="1" parent="1">
          <mxGeometry x="320" y="200" width="80" height="40" as="geometry" />
        </mxCell>
        <mxCell id="WfbTtiC1FSOQRcMJfkay-11" value="within" style="edgeStyle=orthogonalEdgeStyle;rounded=0;orthogonalLoop=1;jettySize=auto;html=1;exitX=1;exitY=0.5;exitDx=0;exitDy=0;entryX=0;entryY=0.5;entryDx=0;entryDy=0;dashed=1;" edge="1" parent="1" source="WfbTtiC1FSOQRcMJfkay-6" target="WfbTtiC1FSOQRcMJfkay-7">
          <mxGeometry relative="1" as="geometry" />
        </mxCell>
        <mxCell id="WfbTtiC1FSOQRcMJfkay-6" value="membership" style="rhombus;whiteSpace=wrap;html=1;dashed=1;" vertex="1" parent="1">
          <mxGeometry x="320" y="200" width="80" height="40" as="geometry" />
        </mxCell>
        <mxCell id="WfbTtiC1FSOQRcMJfkay-7" value="System" style="rounded=0;whiteSpace=wrap;html=1;dashed=1;" vertex="1" parent="1">
          <mxGeometry x="440" y="200" width="80" height="40" as="geometry" />
        </mxCell>
        <mxCell id="WfbTtiC1FSOQRcMJfkay-8" value="ID&lt;br&gt;(in system)" style="ellipse;whiteSpace=wrap;html=1;dashed=1;" vertex="1" parent="1">
          <mxGeometry x="320" y="280" width="80" height="40" as="geometry" />
        </mxCell>
        <mxCell id="WfbTtiC1FSOQRcMJfkay-14" value="cache of" style="edgeStyle=orthogonalEdgeStyle;rounded=0;orthogonalLoop=1;jettySize=auto;html=1;exitX=1;exitY=0.5;exitDx=0;exitDy=0;entryX=0;entryY=0.5;entryDx=0;entryDy=0;horizontal=0;dashed=1;" edge="1" parent="1" source="WfbTtiC1FSOQRcMJfkay-12" target="WfbTtiC1FSOQRcMJfkay-8">
          <mxGeometry relative="1" as="geometry" />
        </mxCell>
        <mxCell id="WfbTtiC1FSOQRcMJfkay-12" value="ID&lt;br&gt;(in system)" style="ellipse;whiteSpace=wrap;html=1;" vertex="1" parent="1">
          <mxGeometry x="200" y="280" width="80" height="40" as="geometry" />
        </mxCell>
        <mxCell id="RVEEXJTWyqhmLp5qRmzl-4" value="Not modelled" style="rounded=1;whiteSpace=wrap;html=1;dashed=1;container=1;collapsible=0;recursiveResize=0;arcSize=8;absoluteArcSize=1;align=left;verticalAlign=top;spacing=0;spacingTop=-4;spacingLeft=2;fillColor=#f5f5f5;strokeColor=#666666;opacity=50;fontColor=#333333;" vertex="1" parent="1">
          <mxGeometry x="310" y="180" width="220" height="150" as="geometry" />
        </mxCell>
        <mxCell id="RVEEXJTWyqhmLp5qRmzl-7" value="1-*" style="text;html=1;strokeColor=none;fillColor=none;align=center;verticalAlign=middle;whiteSpace=wrap;rounded=0;fontSize=8;" vertex="1" parent="1">
          <mxGeometry x="180" y="230" width="20" height="10" as="geometry" />
        </mxCell>
      </root>
    </mxGraphModel>
  </diagram>
  <diagram id="CucOsg6yFphxh3sYVfST" name="Page-3">
    <mxGraphModel dx="794" dy="511" grid="1" gridSize="10" guides="1" tooltips="1" connect="1" arrows="1" fold="1" page="1" pageScale="1" pageWidth="850" pageHeight="1100" math="0" shadow="0">
      <root>
        <mxCell id="0" />
        <mxCell id="1" parent="0" />
        <mxCell id="7F_rjNrzOSS6PRy-5o3B-1" value="Often not modelled" style="rounded=1;whiteSpace=wrap;html=1;dashed=1;container=1;collapsible=0;recursiveResize=0;arcSize=8;absoluteArcSize=1;align=left;verticalAlign=top;spacing=0;spacingTop=-4;spacingLeft=2;fillColor=#f5f5f5;strokeColor=#666666;opacity=50;fontColor=#B3B3B3;fontSize=11;" vertex="1" parent="1">
          <mxGeometry x="470" y="345" width="220" height="145" as="geometry" />
        </mxCell>
        <mxCell id="7F_rjNrzOSS6PRy-5o3B-25" style="edgeStyle=orthogonalEdgeStyle;rounded=0;orthogonalLoop=1;jettySize=auto;html=1;exitX=0.5;exitY=0;exitDx=0;exitDy=0;entryX=0.5;entryY=1;entryDx=0;entryDy=0;strokeColor=#B3B3B3;" edge="1" parent="7F_rjNrzOSS6PRy-5o3B-1" source="8AcsOQGvKRugCFqfw6FE-52" target="8AcsOQGvKRugCFqfw6FE-51">
          <mxGeometry relative="1" as="geometry" />
        </mxCell>
        <mxCell id="8AcsOQGvKRugCFqfw6FE-52" value="" style="rounded=0;whiteSpace=wrap;html=1;fontColor=#B3B3B3;strokeColor=#B3B3B3;" vertex="1" parent="7F_rjNrzOSS6PRy-5o3B-1">
          <mxGeometry x="130" y="95" width="80" height="40" as="geometry" />
        </mxCell>
        <mxCell id="7F_rjNrzOSS6PRy-5o3B-5" value="Identifier" style="rounded=0;whiteSpace=wrap;html=1;strokeColor=#B3B3B3;fontColor=#B3B3B3;shape=ellipse;perimeter=ellipsePerimeter;" vertex="1" parent="7F_rjNrzOSS6PRy-5o3B-1">
          <mxGeometry x="10" y="95" width="80" height="40" as="geometry" />
        </mxCell>
        <mxCell id="8AcsOQGvKRugCFqfw6FE-53" value="Relationship" style="rhombus;whiteSpace=wrap;html=1;fontColor=#B3B3B3;strokeColor=#B3B3B3;" vertex="1" parent="7F_rjNrzOSS6PRy-5o3B-1">
          <mxGeometry x="130" y="95" width="80" height="40" as="geometry" />
        </mxCell>
        <mxCell id="7F_rjNrzOSS6PRy-5o3B-6" value="has" style="edgeStyle=orthogonalEdgeStyle;rounded=0;orthogonalLoop=1;jettySize=auto;html=1;exitX=0;exitY=0.5;exitDx=0;exitDy=0;entryX=1;entryY=0.5;entryDx=0;entryDy=0;fontColor=#B3B3B3;strokeColor=#B3B3B3;" edge="1" parent="7F_rjNrzOSS6PRy-5o3B-1" source="8AcsOQGvKRugCFqfw6FE-53" target="7F_rjNrzOSS6PRy-5o3B-5">
          <mxGeometry relative="1" as="geometry" />
        </mxCell>
        <mxCell id="8AcsOQGvKRugCFqfw6FE-51" value="System" style="rounded=0;whiteSpace=wrap;html=1;strokeColor=#B3B3B3;fontColor=#B3B3B3;" vertex="1" parent="7F_rjNrzOSS6PRy-5o3B-1">
          <mxGeometry x="130" y="15" width="80" height="40" as="geometry" />
        </mxCell>
        <mxCell id="8AcsOQGvKRugCFqfw6FE-2" value="Persona" style="rounded=0;whiteSpace=wrap;html=1;strokeColor=#B3B3B3;fontColor=#B3B3B3;" vertex="1" parent="1">
          <mxGeometry x="200" y="200" width="80" height="40" as="geometry" />
        </mxCell>
        <mxCell id="8AcsOQGvKRugCFqfw6FE-3" value="has" style="edgeStyle=orthogonalEdgeStyle;rounded=0;orthogonalLoop=1;jettySize=auto;html=1;exitX=1;exitY=0.5;exitDx=0;exitDy=0;entryX=0;entryY=0.5;entryDx=0;entryDy=0;strokeColor=#B3B3B3;fontColor=#B3B3B3;" edge="1" parent="1" source="8AcsOQGvKRugCFqfw6FE-5" target="8AcsOQGvKRugCFqfw6FE-9">
          <mxGeometry relative="1" as="geometry" />
        </mxCell>
        <mxCell id="8AcsOQGvKRugCFqfw6FE-29" value="has" style="edgeStyle=orthogonalEdgeStyle;rounded=0;orthogonalLoop=1;jettySize=auto;html=1;exitX=0.5;exitY=1;exitDx=0;exitDy=0;entryX=0.5;entryY=0;entryDx=0;entryDy=0;strokeColor=#B3B3B3;fontColor=#B3B3B3;" edge="1" parent="1" source="8AcsOQGvKRugCFqfw6FE-5" target="8AcsOQGvKRugCFqfw6FE-28">
          <mxGeometry relative="1" as="geometry" />
        </mxCell>
        <mxCell id="8AcsOQGvKRugCFqfw6FE-31" style="edgeStyle=orthogonalEdgeStyle;rounded=0;orthogonalLoop=1;jettySize=auto;html=1;exitX=0.5;exitY=1;exitDx=0;exitDy=0;entryX=0.5;entryY=0;entryDx=0;entryDy=0;strokeColor=#B3B3B3;" edge="1" parent="1" source="8AcsOQGvKRugCFqfw6FE-5" target="8AcsOQGvKRugCFqfw6FE-30">
          <mxGeometry relative="1" as="geometry" />
        </mxCell>
        <mxCell id="8AcsOQGvKRugCFqfw6FE-5" value="Persona" style="rounded=0;whiteSpace=wrap;html=1;strokeColor=#B3B3B3;fontColor=#B3B3B3;" vertex="1" parent="1">
          <mxGeometry x="200" y="200" width="80" height="40" as="geometry" />
        </mxCell>
        <mxCell id="8AcsOQGvKRugCFqfw6FE-6" value="has" style="edgeStyle=orthogonalEdgeStyle;rounded=0;orthogonalLoop=1;jettySize=auto;html=1;exitX=0.5;exitY=1;exitDx=0;exitDy=0;entryX=0.5;entryY=0;entryDx=0;entryDy=0;" edge="1" parent="1" source="8AcsOQGvKRugCFqfw6FE-7">
          <mxGeometry relative="1" as="geometry">
            <mxPoint x="360" y="280" as="targetPoint" />
          </mxGeometry>
        </mxCell>
        <mxCell id="8AcsOQGvKRugCFqfw6FE-7" value="" style="rounded=0;whiteSpace=wrap;html=1;" vertex="1" parent="1">
          <mxGeometry x="320" y="200" width="80" height="40" as="geometry" />
        </mxCell>
        <mxCell id="8AcsOQGvKRugCFqfw6FE-8" value="within" style="edgeStyle=orthogonalEdgeStyle;rounded=0;orthogonalLoop=1;jettySize=auto;html=1;exitX=1;exitY=0.5;exitDx=0;exitDy=0;entryX=0;entryY=0.5;entryDx=0;entryDy=0;strokeColor=#B3B3B3;fontColor=#B3B3B3;" edge="1" parent="1" source="8AcsOQGvKRugCFqfw6FE-9" target="8AcsOQGvKRugCFqfw6FE-10">
          <mxGeometry relative="1" as="geometry" />
        </mxCell>
        <mxCell id="8AcsOQGvKRugCFqfw6FE-9" value="membership" style="rhombus;whiteSpace=wrap;html=1;" vertex="1" parent="1">
          <mxGeometry x="320" y="200" width="80" height="40" as="geometry" />
        </mxCell>
        <mxCell id="8AcsOQGvKRugCFqfw6FE-19" value="has" style="edgeStyle=orthogonalEdgeStyle;rounded=0;orthogonalLoop=1;jettySize=auto;html=1;exitX=1;exitY=0.5;exitDx=0;exitDy=0;entryX=0;entryY=0.5;entryDx=0;entryDy=0;strokeColor=#B3B3B3;fontColor=#B3B3B3;" edge="1" parent="1" source="8AcsOQGvKRugCFqfw6FE-10" target="8AcsOQGvKRugCFqfw6FE-18">
          <mxGeometry relative="1" as="geometry" />
        </mxCell>
        <mxCell id="8AcsOQGvKRugCFqfw6FE-10" value="Group" style="rounded=0;whiteSpace=wrap;html=1;strokeColor=#B3B3B3;fontColor=#B3B3B3;" vertex="1" parent="1">
          <mxGeometry x="440" y="200" width="80" height="40" as="geometry" />
        </mxCell>
        <mxCell id="8AcsOQGvKRugCFqfw6FE-14" value="Not modelled" style="rounded=1;whiteSpace=wrap;html=1;dashed=1;container=1;collapsible=0;recursiveResize=0;arcSize=8;absoluteArcSize=1;align=left;verticalAlign=top;spacing=0;spacingTop=-4;spacingLeft=2;fillColor=#f5f5f5;strokeColor=#666666;opacity=50;fontColor=#333333;" vertex="1" parent="1">
          <mxGeometry x="530" y="30" width="220" height="150" as="geometry" />
        </mxCell>
        <mxCell id="8AcsOQGvKRugCFqfw6FE-26" style="edgeStyle=orthogonalEdgeStyle;rounded=0;orthogonalLoop=1;jettySize=auto;html=1;exitX=1;exitY=0.5;exitDx=0;exitDy=0;entryX=0;entryY=0.5;entryDx=0;entryDy=0;strokeColor=#B3B3B3;fontColor=#B3B3B3;" edge="1" parent="1" source="8AcsOQGvKRugCFqfw6FE-16" target="8AcsOQGvKRugCFqfw6FE-25">
          <mxGeometry relative="1" as="geometry" />
        </mxCell>
        <mxCell id="8AcsOQGvKRugCFqfw6FE-16" value="Role" style="rounded=0;whiteSpace=wrap;html=1;" vertex="1" parent="1">
          <mxGeometry x="320" y="280" width="80" height="40" as="geometry" />
        </mxCell>
        <mxCell id="8AcsOQGvKRugCFqfw6FE-20" value="has" style="edgeStyle=orthogonalEdgeStyle;rounded=0;orthogonalLoop=1;jettySize=auto;html=1;exitX=1;exitY=0.5;exitDx=0;exitDy=0;entryX=0;entryY=0.5;entryDx=0;entryDy=0;strokeColor=#B3B3B3;fontColor=#B3B3B3;" edge="1" parent="1" source="8AcsOQGvKRugCFqfw6FE-17" target="8AcsOQGvKRugCFqfw6FE-5">
          <mxGeometry relative="1" as="geometry" />
        </mxCell>
        <mxCell id="8AcsOQGvKRugCFqfw6FE-17" value="Person" style="rounded=0;whiteSpace=wrap;html=1;strokeColor=#B3B3B3;fontColor=#B3B3B3;" vertex="1" parent="1">
          <mxGeometry x="80" y="200" width="80" height="40" as="geometry" />
        </mxCell>
        <mxCell id="8AcsOQGvKRugCFqfw6FE-18" value="GroupType" style="rounded=0;whiteSpace=wrap;html=1;strokeColor=#B3B3B3;fontColor=#B3B3B3;" vertex="1" parent="1">
          <mxGeometry x="560" y="200" width="80" height="40" as="geometry" />
        </mxCell>
        <mxCell id="8AcsOQGvKRugCFqfw6FE-21" value="&lt;i&gt;&lt;font style=&quot;font-size: 10px;&quot;&gt;(RASCII)&lt;/font&gt;&lt;/i&gt;" style="text;html=1;strokeColor=none;fillColor=none;align=center;verticalAlign=middle;whiteSpace=wrap;rounded=0;" vertex="1" parent="1">
          <mxGeometry x="330" y="320" width="60" height="10" as="geometry" />
        </mxCell>
        <mxCell id="8AcsOQGvKRugCFqfw6FE-22" value="Permissions" style="rounded=0;whiteSpace=wrap;html=1;strokeColor=#B3B3B3;fontColor=#B3B3B3;" vertex="1" parent="1">
          <mxGeometry x="560" y="280" width="80" height="40" as="geometry" />
        </mxCell>
        <mxCell id="8AcsOQGvKRugCFqfw6FE-24" value="" style="rounded=0;whiteSpace=wrap;html=1;strokeColor=#B3B3B3;fontColor=#B3B3B3;" vertex="1" parent="1">
          <mxGeometry x="440" y="280" width="80" height="40" as="geometry" />
        </mxCell>
        <mxCell id="8AcsOQGvKRugCFqfw6FE-27" style="edgeStyle=orthogonalEdgeStyle;rounded=0;orthogonalLoop=1;jettySize=auto;html=1;exitX=1;exitY=0.5;exitDx=0;exitDy=0;entryX=0;entryY=0.5;entryDx=0;entryDy=0;strokeColor=#B3B3B3;fontColor=#B3B3B3;" edge="1" parent="1" source="8AcsOQGvKRugCFqfw6FE-25" target="8AcsOQGvKRugCFqfw6FE-22">
          <mxGeometry relative="1" as="geometry" />
        </mxCell>
        <mxCell id="8AcsOQGvKRugCFqfw6FE-25" value="+/-" style="rhombus;whiteSpace=wrap;html=1;strokeColor=#B3B3B3;fontColor=#B3B3B3;" vertex="1" parent="1">
          <mxGeometry x="440" y="280" width="80" height="40" as="geometry" />
        </mxCell>
        <mxCell id="8AcsOQGvKRugCFqfw6FE-32" value="special &lt;br&gt;case of" style="edgeStyle=orthogonalEdgeStyle;rounded=0;orthogonalLoop=1;jettySize=auto;html=1;entryX=1;entryY=0.5;entryDx=0;entryDy=0;horizontal=0;fontColor=#B3B3B3;strokeColor=#B3B3B3;" edge="1" parent="1" source="8AcsOQGvKRugCFqfw6FE-28" target="8AcsOQGvKRugCFqfw6FE-30">
          <mxGeometry relative="1" as="geometry" />
        </mxCell>
        <mxCell id="8AcsOQGvKRugCFqfw6FE-28" value="Names" style="rounded=0;whiteSpace=wrap;html=1;strokeColor=#B3B3B3;fontColor=#B3B3B3;" vertex="1" parent="1">
          <mxGeometry x="200" y="280" width="80" height="40" as="geometry" />
        </mxCell>
        <mxCell id="8AcsOQGvKRugCFqfw6FE-30" value="Identifiers" style="rounded=0;whiteSpace=wrap;html=1;strokeColor=#B3B3B3;fontColor=#B3B3B3;" vertex="1" parent="1">
          <mxGeometry x="80" y="280" width="80" height="40" as="geometry" />
        </mxCell>
        <mxCell id="8AcsOQGvKRugCFqfw6FE-35" value="described by" style="edgeStyle=orthogonalEdgeStyle;rounded=0;orthogonalLoop=1;jettySize=auto;html=1;exitX=0.5;exitY=1;exitDx=0;exitDy=0;entryX=0.5;entryY=0;entryDx=0;entryDy=0;horizontal=1;" edge="1" parent="1" source="8AcsOQGvKRugCFqfw6FE-34" target="8AcsOQGvKRugCFqfw6FE-5">
          <mxGeometry relative="1" as="geometry" />
        </mxCell>
        <mxCell id="8AcsOQGvKRugCFqfw6FE-34" value="User" style="rounded=0;whiteSpace=wrap;html=1;strokeColor=#B3B3B3;fontColor=#B3B3B3;" vertex="1" parent="1">
          <mxGeometry x="200" y="120" width="80" height="40" as="geometry" />
        </mxCell>
        <mxCell id="8AcsOQGvKRugCFqfw6FE-36" value="Persona" style="rounded=0;whiteSpace=wrap;html=1;strokeColor=#000000;fontColor=#000000;" vertex="1" parent="1">
          <mxGeometry x="240" y="440" width="80" height="40" as="geometry" />
        </mxCell>
        <mxCell id="8AcsOQGvKRugCFqfw6FE-39" value="has" style="rounded=0;orthogonalLoop=1;jettySize=auto;html=1;exitX=1;exitY=0.5;exitDx=0;exitDy=0;entryX=0;entryY=0.5;entryDx=0;entryDy=0;strokeColor=#000000;fontColor=#000000;" edge="1" parent="1" source="8AcsOQGvKRugCFqfw6FE-40" target="8AcsOQGvKRugCFqfw6FE-45">
          <mxGeometry relative="1" as="geometry" />
        </mxCell>
        <mxCell id="8AcsOQGvKRugCFqfw6FE-48" value="has" style="rounded=0;orthogonalLoop=1;jettySize=auto;html=1;exitX=1;exitY=0;exitDx=0;exitDy=0;entryX=0;entryY=1;entryDx=0;entryDy=0;" edge="1" parent="1" source="8AcsOQGvKRugCFqfw6FE-40" target="8AcsOQGvKRugCFqfw6FE-44">
          <mxGeometry relative="1" as="geometry" />
        </mxCell>
        <mxCell id="7F_rjNrzOSS6PRy-5o3B-9" value="has" style="edgeStyle=orthogonalEdgeStyle;rounded=0;orthogonalLoop=1;jettySize=auto;html=1;exitX=0.25;exitY=0;exitDx=0;exitDy=0;entryX=0.25;entryY=1;entryDx=0;entryDy=0;" edge="1" parent="1" source="8AcsOQGvKRugCFqfw6FE-40" target="7F_rjNrzOSS6PRy-5o3B-8">
          <mxGeometry relative="1" as="geometry" />
        </mxCell>
        <mxCell id="7F_rjNrzOSS6PRy-5o3B-15" value="has" style="edgeStyle=orthogonalEdgeStyle;rounded=0;orthogonalLoop=1;jettySize=auto;html=1;exitX=0.5;exitY=1;exitDx=0;exitDy=0;entryX=0.5;entryY=0;entryDx=0;entryDy=0;" edge="1" parent="1" source="8AcsOQGvKRugCFqfw6FE-40" target="7F_rjNrzOSS6PRy-5o3B-13">
          <mxGeometry relative="1" as="geometry" />
        </mxCell>
        <mxCell id="7F_rjNrzOSS6PRy-5o3B-26" value="may be a" style="rounded=0;orthogonalLoop=1;jettySize=auto;html=1;exitX=0;exitY=0;exitDx=0;exitDy=0;entryX=1;entryY=1;entryDx=0;entryDy=0;" edge="1" parent="1" source="8AcsOQGvKRugCFqfw6FE-40" target="8AcsOQGvKRugCFqfw6FE-47">
          <mxGeometry relative="1" as="geometry" />
        </mxCell>
        <mxCell id="8AcsOQGvKRugCFqfw6FE-40" value="Persona" style="rounded=0;whiteSpace=wrap;html=1;strokeColor=#000000;fontColor=#000000;" vertex="1" parent="1">
          <mxGeometry x="240" y="440" width="80" height="40" as="geometry" />
        </mxCell>
        <mxCell id="8AcsOQGvKRugCFqfw6FE-41" value="has" style="edgeStyle=orthogonalEdgeStyle;rounded=0;orthogonalLoop=1;jettySize=auto;html=1;exitX=1;exitY=0.5;exitDx=0;exitDy=0;entryX=0;entryY=0.5;entryDx=0;entryDy=0;strokeColor=#000000;fontColor=#000000;" edge="1" parent="1" source="8AcsOQGvKRugCFqfw6FE-42" target="8AcsOQGvKRugCFqfw6FE-40">
          <mxGeometry relative="1" as="geometry" />
        </mxCell>
        <mxCell id="8AcsOQGvKRugCFqfw6FE-42" value="Person" style="rounded=0;whiteSpace=wrap;html=1;strokeColor=#000000;fontColor=#000000;" vertex="1" parent="1">
          <mxGeometry x="120" y="440" width="80" height="40" as="geometry" />
        </mxCell>
        <mxCell id="8AcsOQGvKRugCFqfw6FE-43" value="special &lt;br&gt;case of" style="rounded=0;orthogonalLoop=1;jettySize=auto;html=1;entryX=0.5;entryY=0;entryDx=0;entryDy=0;horizontal=1;fontColor=#000000;strokeColor=#000000;dashed=1;" edge="1" parent="1" source="8AcsOQGvKRugCFqfw6FE-44" target="8AcsOQGvKRugCFqfw6FE-45">
          <mxGeometry relative="1" as="geometry" />
        </mxCell>
        <mxCell id="8AcsOQGvKRugCFqfw6FE-44" value="Names" style="rounded=0;whiteSpace=wrap;html=1;strokeColor=#000000;fontColor=#000000;" vertex="1" parent="1">
          <mxGeometry x="360" y="360" width="80" height="40" as="geometry" />
        </mxCell>
        <mxCell id="8AcsOQGvKRugCFqfw6FE-54" value="cache of" style="rounded=0;orthogonalLoop=1;jettySize=auto;html=1;exitX=1;exitY=0.5;exitDx=0;exitDy=0;entryX=0;entryY=0.5;entryDx=0;entryDy=0;strokeColor=#B3B3B3;fontColor=#B3B3B3;horizontal=0;" edge="1" parent="1" source="8AcsOQGvKRugCFqfw6FE-45" target="7F_rjNrzOSS6PRy-5o3B-5">
          <mxGeometry relative="1" as="geometry" />
        </mxCell>
        <mxCell id="8AcsOQGvKRugCFqfw6FE-45" value="Identifier" style="rounded=0;whiteSpace=wrap;html=1;strokeColor=#000000;fontColor=#000000;shape=ellipse;perimeter=ellipsePerimeter;" vertex="1" parent="1">
          <mxGeometry x="360" y="440" width="80" height="40" as="geometry" />
        </mxCell>
        <mxCell id="8AcsOQGvKRugCFqfw6FE-47" value="User" style="rounded=0;whiteSpace=wrap;html=1;strokeColor=#000000;fontColor=#000000;" vertex="1" parent="1">
          <mxGeometry x="120" y="360" width="80" height="40" as="geometry" />
        </mxCell>
        <mxCell id="7F_rjNrzOSS6PRy-5o3B-10" value="with" style="edgeStyle=orthogonalEdgeStyle;rounded=0;orthogonalLoop=1;jettySize=auto;html=1;exitX=0.75;exitY=1;exitDx=0;exitDy=0;entryX=0.75;entryY=0;entryDx=0;entryDy=0;" edge="1" parent="1" source="7F_rjNrzOSS6PRy-5o3B-8" target="8AcsOQGvKRugCFqfw6FE-40">
          <mxGeometry relative="1" as="geometry" />
        </mxCell>
        <mxCell id="7F_rjNrzOSS6PRy-5o3B-8" value="Relationship" style="rounded=0;whiteSpace=wrap;html=1;strokeColor=#000000;fontColor=#000000;" vertex="1" parent="1">
          <mxGeometry x="240" y="360" width="80" height="40" as="geometry" />
        </mxCell>
        <mxCell id="7F_rjNrzOSS6PRy-5o3B-11" value="Group" style="rounded=0;whiteSpace=wrap;html=1;strokeColor=#000000;fontColor=#000000;" vertex="1" parent="1">
          <mxGeometry x="120" y="520" width="80" height="40" as="geometry" />
        </mxCell>
        <mxCell id="7F_rjNrzOSS6PRy-5o3B-19" value="as" style="edgeStyle=orthogonalEdgeStyle;rounded=0;orthogonalLoop=1;jettySize=auto;html=1;exitX=1;exitY=0.5;exitDx=0;exitDy=0;entryX=0;entryY=0.5;entryDx=0;entryDy=0;" edge="1" parent="1" source="7F_rjNrzOSS6PRy-5o3B-12" target="7F_rjNrzOSS6PRy-5o3B-18">
          <mxGeometry relative="1" as="geometry" />
        </mxCell>
        <mxCell id="7F_rjNrzOSS6PRy-5o3B-12" value="Membership" style="rounded=0;whiteSpace=wrap;html=1;strokeColor=#000000;fontColor=#000000;" vertex="1" parent="1">
          <mxGeometry x="240" y="520" width="80" height="40" as="geometry" />
        </mxCell>
        <mxCell id="7F_rjNrzOSS6PRy-5o3B-16" value="within" style="edgeStyle=orthogonalEdgeStyle;rounded=0;orthogonalLoop=1;jettySize=auto;html=1;exitX=0;exitY=0.5;exitDx=0;exitDy=0;entryX=1;entryY=0.5;entryDx=0;entryDy=0;" edge="1" parent="1" source="7F_rjNrzOSS6PRy-5o3B-13" target="7F_rjNrzOSS6PRy-5o3B-11">
          <mxGeometry relative="1" as="geometry" />
        </mxCell>
        <mxCell id="7F_rjNrzOSS6PRy-5o3B-13" value="Membership" style="rhombus;whiteSpace=wrap;html=1;" vertex="1" parent="1">
          <mxGeometry x="240" y="520" width="80" height="40" as="geometry" />
        </mxCell>
        <mxCell id="7F_rjNrzOSS6PRy-5o3B-17" style="edgeStyle=orthogonalEdgeStyle;rounded=0;orthogonalLoop=1;jettySize=auto;html=1;exitX=0;exitY=0.5;exitDx=0;exitDy=0;entryX=0.25;entryY=0;entryDx=0;entryDy=0;" edge="1" parent="1" source="7F_rjNrzOSS6PRy-5o3B-11" target="7F_rjNrzOSS6PRy-5o3B-11">
          <mxGeometry relative="1" as="geometry">
            <Array as="points">
              <mxPoint x="110" y="540" />
              <mxPoint x="110" y="500" />
              <mxPoint x="140" y="500" />
            </Array>
          </mxGeometry>
        </mxCell>
        <mxCell id="7F_rjNrzOSS6PRy-5o3B-23" value="has" style="edgeStyle=orthogonalEdgeStyle;rounded=0;orthogonalLoop=1;jettySize=auto;html=1;exitX=1;exitY=0.5;exitDx=0;exitDy=0;entryX=0;entryY=0.5;entryDx=0;entryDy=0;" edge="1" parent="1" source="7F_rjNrzOSS6PRy-5o3B-18" target="7F_rjNrzOSS6PRy-5o3B-21">
          <mxGeometry relative="1" as="geometry" />
        </mxCell>
        <mxCell id="7F_rjNrzOSS6PRy-5o3B-18" value="Role" style="rounded=0;whiteSpace=wrap;html=1;strokeColor=#000000;fontColor=#000000;" vertex="1" parent="1">
          <mxGeometry x="360" y="520" width="80" height="40" as="geometry" />
        </mxCell>
        <mxCell id="7F_rjNrzOSS6PRy-5o3B-20" value="" style="rounded=0;whiteSpace=wrap;html=1;strokeColor=#000000;fontColor=#000000;" vertex="1" parent="1">
          <mxGeometry x="480" y="520" width="80" height="40" as="geometry" />
        </mxCell>
        <mxCell id="7F_rjNrzOSS6PRy-5o3B-24" value="of" style="edgeStyle=orthogonalEdgeStyle;rounded=0;orthogonalLoop=1;jettySize=auto;html=1;exitX=1;exitY=0.5;exitDx=0;exitDy=0;entryX=0;entryY=0.5;entryDx=0;entryDy=0;" edge="1" parent="1" source="7F_rjNrzOSS6PRy-5o3B-21" target="7F_rjNrzOSS6PRy-5o3B-22">
          <mxGeometry relative="1" as="geometry" />
        </mxCell>
        <mxCell id="7F_rjNrzOSS6PRy-5o3B-21" value="+/-" style="rhombus;whiteSpace=wrap;html=1;" vertex="1" parent="1">
          <mxGeometry x="480" y="520" width="80" height="40" as="geometry" />
        </mxCell>
        <mxCell id="7F_rjNrzOSS6PRy-5o3B-22" value="Permission" style="rounded=0;whiteSpace=wrap;html=1;strokeColor=#000000;fontColor=#000000;" vertex="1" parent="1">
          <mxGeometry x="600" y="520" width="80" height="40" as="geometry" />
        </mxCell>
      </root>
    </mxGraphModel>
  </diagram>
  <diagram id="YIhpNq9IW1kFEMG8W4gI" name="Page-4">
    <mxGraphModel dx="794" dy="511" grid="1" gridSize="10" guides="1" tooltips="1" connect="1" arrows="1" fold="1" page="1" pageScale="1" pageWidth="850" pageHeight="1100" math="0" shadow="0">
      <root>
        <mxCell id="0" />
        <mxCell id="1" parent="0" />
        <mxCell id="IKOJncDmV7JVg7EMiSBV-9" value="has" style="edgeStyle=orthogonalEdgeStyle;rounded=0;orthogonalLoop=1;jettySize=auto;html=1;exitX=0;exitY=0.5;exitDx=0;exitDy=0;entryX=1;entryY=0.5;entryDx=0;entryDy=0;" edge="1" parent="1" source="8naImbxNx5GJmy1cR0HV-2" target="8naImbxNx5GJmy1cR0HV-8">
          <mxGeometry relative="1" as="geometry" />
        </mxCell>
        <mxCell id="IKOJncDmV7JVg7EMiSBV-15" style="edgeStyle=orthogonalEdgeStyle;rounded=0;orthogonalLoop=1;jettySize=auto;html=1;exitX=1;exitY=0.5;exitDx=0;exitDy=0;entryX=0;entryY=0.5;entryDx=0;entryDy=0;" edge="1" parent="1" source="8naImbxNx5GJmy1cR0HV-2" target="IKOJncDmV7JVg7EMiSBV-11">
          <mxGeometry relative="1" as="geometry" />
        </mxCell>
        <mxCell id="8naImbxNx5GJmy1cR0HV-2" value="Persona" style="rounded=0;whiteSpace=wrap;html=1;" vertex="1" parent="1">
          <mxGeometry x="320" y="160" width="80" height="40" as="geometry" />
        </mxCell>
        <mxCell id="IKOJncDmV7JVg7EMiSBV-1" value="Domain" style="rounded=1;whiteSpace=wrap;html=1;dashed=1;container=1;collapsible=0;recursiveResize=0;arcSize=8;absoluteArcSize=1;align=left;verticalAlign=top;spacing=0;spacingTop=-4;spacingLeft=2;fillColor=#f5f5f5;strokeColor=#666666;opacity=50;fontColor=#B3B3B3;fontSize=11;" vertex="1" parent="1">
          <mxGeometry x="70" y="140" width="220" height="70" as="geometry" />
        </mxCell>
        <mxCell id="8naImbxNx5GJmy1cR0HV-5" value="" style="rounded=0;whiteSpace=wrap;html=1;" vertex="1" parent="IKOJncDmV7JVg7EMiSBV-1">
          <mxGeometry x="130" y="20" width="80" height="40" as="geometry" />
        </mxCell>
        <mxCell id="IKOJncDmV7JVg7EMiSBV-8" value="within" style="edgeStyle=orthogonalEdgeStyle;rounded=0;orthogonalLoop=1;jettySize=auto;html=1;exitX=0;exitY=0.5;exitDx=0;exitDy=0;entryX=1;entryY=0.5;entryDx=0;entryDy=0;" edge="1" parent="IKOJncDmV7JVg7EMiSBV-1" source="8naImbxNx5GJmy1cR0HV-8" target="8naImbxNx5GJmy1cR0HV-9">
          <mxGeometry relative="1" as="geometry" />
        </mxCell>
        <mxCell id="8naImbxNx5GJmy1cR0HV-8" value="Membership&lt;br&gt;(ID)" style="rhombus;whiteSpace=wrap;html=1;" vertex="1" parent="IKOJncDmV7JVg7EMiSBV-1">
          <mxGeometry x="130" y="20" width="80" height="40" as="geometry" />
        </mxCell>
        <mxCell id="8naImbxNx5GJmy1cR0HV-9" value="System" style="rounded=0;whiteSpace=wrap;html=1;" vertex="1" parent="IKOJncDmV7JVg7EMiSBV-1">
          <mxGeometry x="10" y="20" width="80" height="40" as="geometry" />
        </mxCell>
        <mxCell id="IKOJncDmV7JVg7EMiSBV-10" value="Domain" style="rounded=1;whiteSpace=wrap;html=1;dashed=1;container=1;collapsible=0;recursiveResize=0;arcSize=8;absoluteArcSize=1;align=left;verticalAlign=top;spacing=0;spacingTop=-4;spacingLeft=2;fillColor=#f5f5f5;strokeColor=#666666;opacity=50;fontColor=#B3B3B3;fontSize=11;" vertex="1" parent="1">
          <mxGeometry x="430" y="140" width="220" height="70" as="geometry" />
        </mxCell>
        <mxCell id="IKOJncDmV7JVg7EMiSBV-11" value="" style="rounded=0;whiteSpace=wrap;html=1;" vertex="1" parent="IKOJncDmV7JVg7EMiSBV-10">
          <mxGeometry x="10" y="20" width="80" height="40" as="geometry" />
        </mxCell>
        <mxCell id="IKOJncDmV7JVg7EMiSBV-13" value="Membership&lt;br&gt;(ID)" style="rhombus;whiteSpace=wrap;html=1;" vertex="1" parent="IKOJncDmV7JVg7EMiSBV-10">
          <mxGeometry x="10" y="20" width="80" height="40" as="geometry" />
        </mxCell>
        <mxCell id="IKOJncDmV7JVg7EMiSBV-14" value="System" style="rounded=0;whiteSpace=wrap;html=1;" vertex="1" parent="IKOJncDmV7JVg7EMiSBV-10">
          <mxGeometry x="130" y="20" width="80" height="40" as="geometry" />
        </mxCell>
        <mxCell id="IKOJncDmV7JVg7EMiSBV-12" value="within" style="rounded=0;orthogonalLoop=1;jettySize=auto;html=1;exitX=1;exitY=0.5;exitDx=0;exitDy=0;entryX=0;entryY=0.5;entryDx=0;entryDy=0;" edge="1" parent="IKOJncDmV7JVg7EMiSBV-10" source="IKOJncDmV7JVg7EMiSBV-13" target="IKOJncDmV7JVg7EMiSBV-14">
          <mxGeometry relative="1" as="geometry" />
        </mxCell>
      </root>
    </mxGraphModel>
  </diagram>
  <diagram id="ggLqFR6CV0Hk0LCAzpiD" name="Page-5">
    <mxGraphModel dx="794" dy="511" grid="1" gridSize="10" guides="1" tooltips="1" connect="1" arrows="1" fold="1" page="1" pageScale="1" pageWidth="850" pageHeight="1100" math="0" shadow="0">
      <root>
        <mxCell id="0" />
        <mxCell id="1" parent="0" />
        <mxCell id="nR4LxTjCFg_G9eWAZ6dM-5" value="has" style="edgeStyle=orthogonalEdgeStyle;rounded=0;orthogonalLoop=1;jettySize=auto;html=1;exitX=1;exitY=0.5;exitDx=0;exitDy=0;entryX=0;entryY=0.5;entryDx=0;entryDy=0;" edge="1" parent="1" source="nR4LxTjCFg_G9eWAZ6dM-1" target="nR4LxTjCFg_G9eWAZ6dM-4">
          <mxGeometry relative="1" as="geometry" />
        </mxCell>
        <mxCell id="nR4LxTjCFg_G9eWAZ6dM-1" value="User" style="rounded=0;whiteSpace=wrap;html=1;" vertex="1" parent="1">
          <mxGeometry x="200" y="200" width="80" height="40" as="geometry" />
        </mxCell>
        <mxCell id="nR4LxTjCFg_G9eWAZ6dM-2" value="Account" style="rounded=0;whiteSpace=wrap;html=1;" vertex="1" parent="1">
          <mxGeometry x="440" y="200" width="80" height="40" as="geometry" />
        </mxCell>
        <mxCell id="nR4LxTjCFg_G9eWAZ6dM-8" value="as" style="edgeStyle=orthogonalEdgeStyle;rounded=0;orthogonalLoop=1;jettySize=auto;html=1;exitX=0.5;exitY=1;exitDx=0;exitDy=0;entryX=0.5;entryY=0;entryDx=0;entryDy=0;" edge="1" parent="1" source="nR4LxTjCFg_G9eWAZ6dM-3" target="nR4LxTjCFg_G9eWAZ6dM-7">
          <mxGeometry relative="1" as="geometry" />
        </mxCell>
        <mxCell id="nR4LxTjCFg_G9eWAZ6dM-3" value="" style="rounded=0;whiteSpace=wrap;html=1;" vertex="1" parent="1">
          <mxGeometry x="320" y="200" width="80" height="40" as="geometry" />
        </mxCell>
        <mxCell id="nR4LxTjCFg_G9eWAZ6dM-6" value="within" style="edgeStyle=orthogonalEdgeStyle;rounded=0;orthogonalLoop=1;jettySize=auto;html=1;exitX=1;exitY=0.5;exitDx=0;exitDy=0;entryX=0;entryY=0.5;entryDx=0;entryDy=0;" edge="1" parent="1" source="nR4LxTjCFg_G9eWAZ6dM-4" target="nR4LxTjCFg_G9eWAZ6dM-2">
          <mxGeometry relative="1" as="geometry" />
        </mxCell>
        <mxCell id="nR4LxTjCFg_G9eWAZ6dM-4" value="Membership" style="rhombus;whiteSpace=wrap;html=1;" vertex="1" parent="1">
          <mxGeometry x="320" y="200" width="80" height="40" as="geometry" />
        </mxCell>
        <mxCell id="nR4LxTjCFg_G9eWAZ6dM-7" value="Role" style="rounded=0;whiteSpace=wrap;html=1;" vertex="1" parent="1">
          <mxGeometry x="320" y="280" width="80" height="40" as="geometry" />
        </mxCell>
      </root>
    </mxGraphModel>
  </diagram>
  <diagram id="meL0JcDdpC7oRcN67y34" name="Page-6">
    <mxGraphModel dx="794" dy="511" grid="1" gridSize="10" guides="1" tooltips="1" connect="1" arrows="1" fold="1" page="1" pageScale="1" pageWidth="850" pageHeight="1100" math="0" shadow="0">
      <root>
        <mxCell id="0" />
        <mxCell id="1" parent="0" />
        <mxCell id="-bqgEndCcWdMMk0B27Z3-9" value="has" style="edgeStyle=orthogonalEdgeStyle;rounded=0;orthogonalLoop=1;jettySize=auto;html=1;exitX=1;exitY=0.5;exitDx=0;exitDy=0;entryX=0;entryY=0.5;entryDx=0;entryDy=0;strokeColor=#B3B3B3;fontColor=#B3B3B3;" edge="1" parent="1" source="-bqgEndCcWdMMk0B27Z3-10" target="-bqgEndCcWdMMk0B27Z3-14">
          <mxGeometry relative="1" as="geometry" />
        </mxCell>
        <mxCell id="-bqgEndCcWdMMk0B27Z3-10" value="User" style="rounded=0;whiteSpace=wrap;html=1;strokeColor=#B3B3B3;fontColor=#B3B3B3;" vertex="1" parent="1">
          <mxGeometry x="230" y="170" width="80" height="40" as="geometry" />
        </mxCell>
        <mxCell id="-bqgEndCcWdMMk0B27Z3-11" value="as" style="edgeStyle=orthogonalEdgeStyle;rounded=0;orthogonalLoop=1;jettySize=auto;html=1;exitX=1;exitY=0.5;exitDx=0;exitDy=0;entryX=0;entryY=0.5;entryDx=0;entryDy=0;strokeColor=#B3B3B3;fontColor=#B3B3B3;" edge="1" parent="1" source="-bqgEndCcWdMMk0B27Z3-14" target="-bqgEndCcWdMMk0B27Z3-15">
          <mxGeometry relative="1" as="geometry" />
        </mxCell>
        <mxCell id="-bqgEndCcWdMMk0B27Z3-12" value="" style="rounded=0;whiteSpace=wrap;html=1;strokeColor=#B3B3B3;fontColor=#B3B3B3;" vertex="1" parent="1">
          <mxGeometry x="350" y="170" width="80" height="40" as="geometry" />
        </mxCell>
        <mxCell id="-bqgEndCcWdMMk0B27Z3-14" value="Membership" style="rhombus;whiteSpace=wrap;html=1;strokeColor=#B3B3B3;fontColor=#B3B3B3;" vertex="1" parent="1">
          <mxGeometry x="350" y="170" width="80" height="40" as="geometry" />
        </mxCell>
        <mxCell id="-bqgEndCcWdMMk0B27Z3-15" value="Role" style="rounded=0;whiteSpace=wrap;html=1;strokeColor=#B3B3B3;fontColor=#B3B3B3;" vertex="1" parent="1">
          <mxGeometry x="470" y="170" width="80" height="40" as="geometry" />
        </mxCell>
        <mxCell id="-bqgEndCcWdMMk0B27Z3-25" value="Untitled Layer" parent="0" />
        <mxCell id="-bqgEndCcWdMMk0B27Z3-34" value="has" style="edgeStyle=orthogonalEdgeStyle;rounded=0;orthogonalLoop=1;jettySize=auto;html=1;exitX=1;exitY=0.5;exitDx=0;exitDy=0;entryX=0;entryY=0.5;entryDx=0;entryDy=0;strokeColor=#B3B3B3;fontColor=#B3B3B3;" edge="1" parent="-bqgEndCcWdMMk0B27Z3-25" source="-bqgEndCcWdMMk0B27Z3-35" target="-bqgEndCcWdMMk0B27Z3-38">
          <mxGeometry relative="1" as="geometry" />
        </mxCell>
        <mxCell id="-bqgEndCcWdMMk0B27Z3-35" value="User" style="rounded=0;whiteSpace=wrap;html=1;strokeColor=#B3B3B3;fontColor=#B3B3B3;" vertex="1" parent="-bqgEndCcWdMMk0B27Z3-25">
          <mxGeometry x="220" y="180" width="80" height="40" as="geometry" />
        </mxCell>
        <mxCell id="-bqgEndCcWdMMk0B27Z3-36" value="as" style="edgeStyle=orthogonalEdgeStyle;rounded=0;orthogonalLoop=1;jettySize=auto;html=1;exitX=1;exitY=0.5;exitDx=0;exitDy=0;entryX=0;entryY=0.5;entryDx=0;entryDy=0;strokeColor=#B3B3B3;fontColor=#B3B3B3;" edge="1" parent="-bqgEndCcWdMMk0B27Z3-25" source="-bqgEndCcWdMMk0B27Z3-38" target="-bqgEndCcWdMMk0B27Z3-39">
          <mxGeometry relative="1" as="geometry" />
        </mxCell>
        <mxCell id="-bqgEndCcWdMMk0B27Z3-37" value="" style="rounded=0;whiteSpace=wrap;html=1;strokeColor=#B3B3B3;fontColor=#B3B3B3;" vertex="1" parent="-bqgEndCcWdMMk0B27Z3-25">
          <mxGeometry x="340" y="180" width="80" height="40" as="geometry" />
        </mxCell>
        <mxCell id="-bqgEndCcWdMMk0B27Z3-38" value="Membership" style="rhombus;whiteSpace=wrap;html=1;strokeColor=#B3B3B3;fontColor=#B3B3B3;" vertex="1" parent="-bqgEndCcWdMMk0B27Z3-25">
          <mxGeometry x="340" y="180" width="80" height="40" as="geometry" />
        </mxCell>
        <mxCell id="-bqgEndCcWdMMk0B27Z3-39" value="Role" style="rounded=0;whiteSpace=wrap;html=1;strokeColor=#B3B3B3;fontColor=#B3B3B3;" vertex="1" parent="-bqgEndCcWdMMk0B27Z3-25">
          <mxGeometry x="460" y="180" width="80" height="40" as="geometry" />
        </mxCell>
        <mxCell id="-bqgEndCcWdMMk0B27Z3-40" value="Untitled Layer" parent="0" />
        <mxCell id="-bqgEndCcWdMMk0B27Z3-41" value="has" style="edgeStyle=orthogonalEdgeStyle;rounded=0;orthogonalLoop=1;jettySize=auto;html=1;exitX=1;exitY=0.5;exitDx=0;exitDy=0;entryX=0;entryY=0.5;entryDx=0;entryDy=0;strokeColor=#B3B3B3;fontColor=#B3B3B3;" edge="1" parent="-bqgEndCcWdMMk0B27Z3-40" source="-bqgEndCcWdMMk0B27Z3-42" target="-bqgEndCcWdMMk0B27Z3-45">
          <mxGeometry relative="1" as="geometry" />
        </mxCell>
        <mxCell id="-bqgEndCcWdMMk0B27Z3-42" value="User" style="rounded=0;whiteSpace=wrap;html=1;strokeColor=#B3B3B3;fontColor=#B3B3B3;" vertex="1" parent="-bqgEndCcWdMMk0B27Z3-40">
          <mxGeometry x="210" y="190" width="80" height="40" as="geometry" />
        </mxCell>
        <mxCell id="-bqgEndCcWdMMk0B27Z3-43" value="as" style="edgeStyle=orthogonalEdgeStyle;rounded=0;orthogonalLoop=1;jettySize=auto;html=1;exitX=1;exitY=0.5;exitDx=0;exitDy=0;entryX=0;entryY=0.5;entryDx=0;entryDy=0;strokeColor=#B3B3B3;fontColor=#B3B3B3;" edge="1" parent="-bqgEndCcWdMMk0B27Z3-40" source="-bqgEndCcWdMMk0B27Z3-45" target="-bqgEndCcWdMMk0B27Z3-46">
          <mxGeometry relative="1" as="geometry" />
        </mxCell>
        <mxCell id="-bqgEndCcWdMMk0B27Z3-44" value="" style="rounded=0;whiteSpace=wrap;html=1;strokeColor=#B3B3B3;fontColor=#B3B3B3;" vertex="1" parent="-bqgEndCcWdMMk0B27Z3-40">
          <mxGeometry x="330" y="190" width="80" height="40" as="geometry" />
        </mxCell>
        <mxCell id="-bqgEndCcWdMMk0B27Z3-45" value="Membership" style="rhombus;whiteSpace=wrap;html=1;strokeColor=#B3B3B3;fontColor=#B3B3B3;" vertex="1" parent="-bqgEndCcWdMMk0B27Z3-40">
          <mxGeometry x="330" y="190" width="80" height="40" as="geometry" />
        </mxCell>
        <mxCell id="-bqgEndCcWdMMk0B27Z3-46" value="Role" style="rounded=0;whiteSpace=wrap;html=1;strokeColor=#B3B3B3;fontColor=#B3B3B3;" vertex="1" parent="-bqgEndCcWdMMk0B27Z3-40">
          <mxGeometry x="450" y="190" width="80" height="40" as="geometry" />
        </mxCell>
        <mxCell id="-bqgEndCcWdMMk0B27Z3-16" value="Untitled Layer" parent="0" />
        <mxCell id="-bqgEndCcWdMMk0B27Z3-17" value="has" style="edgeStyle=orthogonalEdgeStyle;rounded=0;orthogonalLoop=1;jettySize=auto;html=1;exitX=1;exitY=0.5;exitDx=0;exitDy=0;entryX=0;entryY=0.5;entryDx=0;entryDy=0;" edge="1" parent="-bqgEndCcWdMMk0B27Z3-16" source="-bqgEndCcWdMMk0B27Z3-18" target="-bqgEndCcWdMMk0B27Z3-23">
          <mxGeometry relative="1" as="geometry" />
        </mxCell>
        <mxCell id="-bqgEndCcWdMMk0B27Z3-18" value="User" style="rounded=0;whiteSpace=wrap;html=1;" vertex="1" parent="-bqgEndCcWdMMk0B27Z3-16">
          <mxGeometry x="200" y="200" width="80" height="40" as="geometry" />
        </mxCell>
        <mxCell id="-bqgEndCcWdMMk0B27Z3-19" value="Account" style="rounded=0;whiteSpace=wrap;html=1;" vertex="1" parent="-bqgEndCcWdMMk0B27Z3-16">
          <mxGeometry x="320" y="120" width="80" height="40" as="geometry" />
        </mxCell>
        <mxCell id="-bqgEndCcWdMMk0B27Z3-20" value="as" style="edgeStyle=orthogonalEdgeStyle;rounded=0;orthogonalLoop=1;jettySize=auto;html=1;exitX=1;exitY=0.5;exitDx=0;exitDy=0;entryX=0;entryY=0.5;entryDx=0;entryDy=0;" edge="1" parent="-bqgEndCcWdMMk0B27Z3-16" source="-bqgEndCcWdMMk0B27Z3-23" target="-bqgEndCcWdMMk0B27Z3-24">
          <mxGeometry relative="1" as="geometry" />
        </mxCell>
        <mxCell id="-bqgEndCcWdMMk0B27Z3-21" value="" style="rounded=0;whiteSpace=wrap;html=1;" vertex="1" parent="-bqgEndCcWdMMk0B27Z3-16">
          <mxGeometry x="320" y="200" width="80" height="40" as="geometry" />
        </mxCell>
        <mxCell id="-bqgEndCcWdMMk0B27Z3-22" value="within" style="edgeStyle=orthogonalEdgeStyle;rounded=0;orthogonalLoop=1;jettySize=auto;html=1;exitX=0.5;exitY=0;exitDx=0;exitDy=0;entryX=0.5;entryY=1;entryDx=0;entryDy=0;" edge="1" parent="-bqgEndCcWdMMk0B27Z3-16" source="-bqgEndCcWdMMk0B27Z3-21" target="-bqgEndCcWdMMk0B27Z3-19">
          <mxGeometry relative="1" as="geometry" />
        </mxCell>
        <mxCell id="-bqgEndCcWdMMk0B27Z3-23" value="Membership" style="rhombus;whiteSpace=wrap;html=1;" vertex="1" parent="-bqgEndCcWdMMk0B27Z3-16">
          <mxGeometry x="320" y="200" width="80" height="40" as="geometry" />
        </mxCell>
        <mxCell id="-bqgEndCcWdMMk0B27Z3-24" value="Role" style="rounded=0;whiteSpace=wrap;html=1;" vertex="1" parent="-bqgEndCcWdMMk0B27Z3-16">
          <mxGeometry x="440" y="200" width="80" height="40" as="geometry" />
        </mxCell>
      </root>
    </mxGraphModel>
  </diagram>
  <diagram id="G057DE-QGKuPD13xYUFj" name="Page-7">
    <mxGraphModel dx="794" dy="511" grid="1" gridSize="10" guides="1" tooltips="1" connect="1" arrows="1" fold="1" page="1" pageScale="1" pageWidth="850" pageHeight="1100" math="0" shadow="0">
      <root>
        <mxCell id="0" />
        <mxCell id="1" parent="0" />
        <mxCell id="bWpJ65q4Yt1XKekNjI5r-3" value="to" style="edgeStyle=orthogonalEdgeStyle;rounded=0;orthogonalLoop=1;jettySize=auto;html=1;exitX=0.5;exitY=0;exitDx=0;exitDy=0;entryX=0.5;entryY=1;entryDx=0;entryDy=0;" edge="1" parent="1" source="bWpJ65q4Yt1XKekNjI5r-1" target="bWpJ65q4Yt1XKekNjI5r-2">
          <mxGeometry relative="1" as="geometry" />
        </mxCell>
        <mxCell id="bWpJ65q4Yt1XKekNjI5r-8" value="to" style="edgeStyle=orthogonalEdgeStyle;rounded=0;orthogonalLoop=1;jettySize=auto;html=1;exitX=0;exitY=0.5;exitDx=0;exitDy=0;entryX=1;entryY=0.5;entryDx=0;entryDy=0;" edge="1" parent="1" source="bWpJ65q4Yt1XKekNjI5r-1" target="bWpJ65q4Yt1XKekNjI5r-4">
          <mxGeometry relative="1" as="geometry" />
        </mxCell>
        <mxCell id="bWpJ65q4Yt1XKekNjI5r-9" value="for" style="edgeStyle=orthogonalEdgeStyle;rounded=0;orthogonalLoop=1;jettySize=auto;html=1;exitX=0.5;exitY=1;exitDx=0;exitDy=0;entryX=0.5;entryY=0;entryDx=0;entryDy=0;" edge="1" parent="1" source="bWpJ65q4Yt1XKekNjI5r-1" target="bWpJ65q4Yt1XKekNjI5r-5">
          <mxGeometry relative="1" as="geometry" />
        </mxCell>
        <mxCell id="bWpJ65q4Yt1XKekNjI5r-10" value="" style="edgeStyle=orthogonalEdgeStyle;rounded=0;orthogonalLoop=1;jettySize=auto;html=1;exitX=1;exitY=0.5;exitDx=0;exitDy=0;entryX=0;entryY=0.5;entryDx=0;entryDy=0;" edge="1" parent="1" source="bWpJ65q4Yt1XKekNjI5r-1" target="bWpJ65q4Yt1XKekNjI5r-6">
          <mxGeometry relative="1" as="geometry" />
        </mxCell>
        <mxCell id="bWpJ65q4Yt1XKekNjI5r-16" value="has" style="rounded=0;orthogonalLoop=1;jettySize=auto;html=1;exitX=0;exitY=0;exitDx=0;exitDy=0;entryX=1;entryY=1;entryDx=0;entryDy=0;" edge="1" parent="1" source="bWpJ65q4Yt1XKekNjI5r-1" target="bWpJ65q4Yt1XKekNjI5r-15">
          <mxGeometry relative="1" as="geometry" />
        </mxCell>
        <mxCell id="bWpJ65q4Yt1XKekNjI5r-1" value="Invitation" style="rounded=0;whiteSpace=wrap;html=1;" vertex="1" parent="1">
          <mxGeometry x="280" y="200" width="80" height="40" as="geometry" />
        </mxCell>
        <mxCell id="bWpJ65q4Yt1XKekNjI5r-2" value="Account" style="rounded=0;whiteSpace=wrap;html=1;" vertex="1" parent="1">
          <mxGeometry x="280" y="120" width="80" height="40" as="geometry" />
        </mxCell>
        <mxCell id="bWpJ65q4Yt1XKekNjI5r-14" value="of" style="rounded=0;orthogonalLoop=1;jettySize=auto;html=1;exitX=0;exitY=0.5;exitDx=0;exitDy=0;entryX=1;entryY=0.5;entryDx=0;entryDy=0;dashed=1;" edge="1" parent="1" source="bWpJ65q4Yt1XKekNjI5r-4" target="bWpJ65q4Yt1XKekNjI5r-13">
          <mxGeometry relative="1" as="geometry" />
        </mxCell>
        <mxCell id="bWpJ65q4Yt1XKekNjI5r-4" value="email" style="ellipse;whiteSpace=wrap;html=1;" vertex="1" parent="1">
          <mxGeometry x="160" y="200" width="80" height="40" as="geometry" />
        </mxCell>
        <mxCell id="bWpJ65q4Yt1XKekNjI5r-11" value="within" style="edgeStyle=orthogonalEdgeStyle;rounded=0;orthogonalLoop=1;jettySize=auto;html=1;exitX=1;exitY=0.5;exitDx=0;exitDy=0;entryX=0.5;entryY=1;entryDx=0;entryDy=0;" edge="1" parent="1" source="bWpJ65q4Yt1XKekNjI5r-5" target="bWpJ65q4Yt1XKekNjI5r-6">
          <mxGeometry relative="1" as="geometry" />
        </mxCell>
        <mxCell id="bWpJ65q4Yt1XKekNjI5r-5" value="role" style="ellipse;whiteSpace=wrap;html=1;" vertex="1" parent="1">
          <mxGeometry x="280" y="280" width="80" height="40" as="geometry" />
        </mxCell>
        <mxCell id="bWpJ65q4Yt1XKekNjI5r-6" value="group" style="ellipse;whiteSpace=wrap;html=1;" vertex="1" parent="1">
          <mxGeometry x="400" y="200" width="80" height="40" as="geometry" />
        </mxCell>
        <mxCell id="bWpJ65q4Yt1XKekNjI5r-17" value="retrieves invite&lt;br&gt;using" style="edgeStyle=orthogonalEdgeStyle;rounded=0;orthogonalLoop=1;jettySize=auto;html=1;exitX=0.5;exitY=0;exitDx=0;exitDy=0;entryX=0;entryY=0.5;entryDx=0;entryDy=0;" edge="1" parent="1" source="bWpJ65q4Yt1XKekNjI5r-13" target="bWpJ65q4Yt1XKekNjI5r-15">
          <mxGeometry relative="1" as="geometry" />
        </mxCell>
        <mxCell id="bWpJ65q4Yt1XKekNjI5r-13" value="Persona&lt;br&gt;&lt;i&gt;(future or existing)&lt;/i&gt;" style="rounded=0;whiteSpace=wrap;html=1;" vertex="1" parent="1">
          <mxGeometry x="40" y="200" width="80" height="40" as="geometry" />
        </mxCell>
        <mxCell id="bWpJ65q4Yt1XKekNjI5r-15" value="id&lt;br&gt;code" style="ellipse;whiteSpace=wrap;html=1;" vertex="1" parent="1">
          <mxGeometry x="150" y="120" width="80" height="40" as="geometry" />
        </mxCell>
        <mxCell id="v9rUAAASvy_U17_TjP1I-1" value="to" style="edgeStyle=orthogonalEdgeStyle;rounded=0;orthogonalLoop=1;jettySize=auto;html=1;exitX=0.5;exitY=0;exitDx=0;exitDy=0;entryX=0.5;entryY=1;entryDx=0;entryDy=0;" edge="1" parent="1" source="v9rUAAASvy_U17_TjP1I-6" target="v9rUAAASvy_U17_TjP1I-7">
          <mxGeometry relative="1" as="geometry" />
        </mxCell>
        <mxCell id="v9rUAAASvy_U17_TjP1I-2" value="to" style="edgeStyle=orthogonalEdgeStyle;rounded=0;orthogonalLoop=1;jettySize=auto;html=1;exitX=0;exitY=0.5;exitDx=0;exitDy=0;entryX=1;entryY=0.5;entryDx=0;entryDy=0;" edge="1" parent="1" source="v9rUAAASvy_U17_TjP1I-6" target="v9rUAAASvy_U17_TjP1I-9">
          <mxGeometry relative="1" as="geometry" />
        </mxCell>
        <mxCell id="v9rUAAASvy_U17_TjP1I-3" value="for" style="edgeStyle=orthogonalEdgeStyle;rounded=0;orthogonalLoop=1;jettySize=auto;html=1;exitX=0.5;exitY=1;exitDx=0;exitDy=0;entryX=0.5;entryY=0;entryDx=0;entryDy=0;" edge="1" parent="1" source="v9rUAAASvy_U17_TjP1I-6" target="v9rUAAASvy_U17_TjP1I-11">
          <mxGeometry relative="1" as="geometry" />
        </mxCell>
        <mxCell id="v9rUAAASvy_U17_TjP1I-4" value="" style="edgeStyle=orthogonalEdgeStyle;rounded=0;orthogonalLoop=1;jettySize=auto;html=1;exitX=1;exitY=0.5;exitDx=0;exitDy=0;entryX=0;entryY=0.5;entryDx=0;entryDy=0;" edge="1" parent="1" source="v9rUAAASvy_U17_TjP1I-6" target="v9rUAAASvy_U17_TjP1I-12">
          <mxGeometry relative="1" as="geometry" />
        </mxCell>
        <mxCell id="v9rUAAASvy_U17_TjP1I-5" value="has" style="rounded=0;orthogonalLoop=1;jettySize=auto;html=1;exitX=0;exitY=0;exitDx=0;exitDy=0;entryX=1;entryY=1;entryDx=0;entryDy=0;" edge="1" parent="1" source="v9rUAAASvy_U17_TjP1I-6" target="v9rUAAASvy_U17_TjP1I-15">
          <mxGeometry relative="1" as="geometry" />
        </mxCell>
        <mxCell id="v9rUAAASvy_U17_TjP1I-17" style="rounded=0;orthogonalLoop=1;jettySize=auto;html=1;exitX=0;exitY=1;exitDx=0;exitDy=0;entryX=1;entryY=0;entryDx=0;entryDy=0;" edge="1" parent="1" source="v9rUAAASvy_U17_TjP1I-6" target="v9rUAAASvy_U17_TjP1I-16">
          <mxGeometry relative="1" as="geometry" />
        </mxCell>
        <mxCell id="v9rUAAASvy_U17_TjP1I-6" value="Invitation" style="rounded=0;whiteSpace=wrap;html=1;" vertex="1" parent="1">
          <mxGeometry x="680" y="120" width="80" height="40" as="geometry" />
        </mxCell>
        <mxCell id="v9rUAAASvy_U17_TjP1I-7" value="Account" style="rounded=0;whiteSpace=wrap;html=1;" vertex="1" parent="1">
          <mxGeometry x="680" y="40" width="80" height="40" as="geometry" />
        </mxCell>
        <mxCell id="v9rUAAASvy_U17_TjP1I-8" value="of" style="rounded=0;orthogonalLoop=1;jettySize=auto;html=1;exitX=0;exitY=0.5;exitDx=0;exitDy=0;entryX=1;entryY=0.5;entryDx=0;entryDy=0;dashed=1;" edge="1" parent="1" source="v9rUAAASvy_U17_TjP1I-9" target="v9rUAAASvy_U17_TjP1I-14">
          <mxGeometry relative="1" as="geometry" />
        </mxCell>
        <mxCell id="v9rUAAASvy_U17_TjP1I-9" value="email" style="ellipse;whiteSpace=wrap;html=1;" vertex="1" parent="1">
          <mxGeometry x="560" y="120" width="80" height="40" as="geometry" />
        </mxCell>
        <mxCell id="v9rUAAASvy_U17_TjP1I-10" value="within" style="edgeStyle=orthogonalEdgeStyle;rounded=0;orthogonalLoop=1;jettySize=auto;html=1;exitX=1;exitY=0.5;exitDx=0;exitDy=0;entryX=0.5;entryY=1;entryDx=0;entryDy=0;" edge="1" parent="1" source="v9rUAAASvy_U17_TjP1I-11" target="v9rUAAASvy_U17_TjP1I-12">
          <mxGeometry relative="1" as="geometry" />
        </mxCell>
        <mxCell id="v9rUAAASvy_U17_TjP1I-11" value="role" style="ellipse;whiteSpace=wrap;html=1;" vertex="1" parent="1">
          <mxGeometry x="680" y="200" width="80" height="40" as="geometry" />
        </mxCell>
        <mxCell id="v9rUAAASvy_U17_TjP1I-12" value="group" style="ellipse;whiteSpace=wrap;html=1;" vertex="1" parent="1">
          <mxGeometry x="800" y="120" width="80" height="40" as="geometry" />
        </mxCell>
        <mxCell id="v9rUAAASvy_U17_TjP1I-13" value="retrieves invite&lt;br&gt;using" style="edgeStyle=orthogonalEdgeStyle;rounded=0;orthogonalLoop=1;jettySize=auto;html=1;exitX=0.5;exitY=0;exitDx=0;exitDy=0;entryX=0;entryY=0.5;entryDx=0;entryDy=0;" edge="1" parent="1" source="v9rUAAASvy_U17_TjP1I-14" target="v9rUAAASvy_U17_TjP1I-15">
          <mxGeometry relative="1" as="geometry" />
        </mxCell>
        <mxCell id="v9rUAAASvy_U17_TjP1I-14" value="Persona&lt;br&gt;&lt;i&gt;(future or existing)&lt;/i&gt;" style="rounded=0;whiteSpace=wrap;html=1;" vertex="1" parent="1">
          <mxGeometry x="440" y="120" width="80" height="40" as="geometry" />
        </mxCell>
        <mxCell id="v9rUAAASvy_U17_TjP1I-15" value="id&lt;br&gt;code" style="ellipse;whiteSpace=wrap;html=1;" vertex="1" parent="1">
          <mxGeometry x="550" y="40" width="80" height="40" as="geometry" />
        </mxCell>
        <mxCell id="v9rUAAASvy_U17_TjP1I-18" value="of" style="edgeStyle=orthogonalEdgeStyle;rounded=0;orthogonalLoop=1;jettySize=auto;html=1;exitX=0;exitY=0.5;exitDx=0;exitDy=0;entryX=0.5;entryY=1;entryDx=0;entryDy=0;" edge="1" parent="1" source="v9rUAAASvy_U17_TjP1I-16" target="v9rUAAASvy_U17_TjP1I-14">
          <mxGeometry relative="1" as="geometry" />
        </mxCell>
        <mxCell id="v9rUAAASvy_U17_TjP1I-16" value="Identifier" style="ellipse;whiteSpace=wrap;html=1;" vertex="1" parent="1">
          <mxGeometry x="560" y="200" width="80" height="40" as="geometry" />
        </mxCell>
      </root>
    </mxGraphModel>
  </diagram>
  <diagram id="Kp3YzpUzQrcEsKO8pImK" name="Page-8">
    <mxGraphModel dx="794" dy="511" grid="1" gridSize="10" guides="1" tooltips="1" connect="1" arrows="1" fold="1" page="1" pageScale="1" pageWidth="850" pageHeight="1100" math="0" shadow="0">
      <root>
        <mxCell id="0" />
        <mxCell id="1" parent="0" />
        <mxCell id="IDwW-XjW6kwkG8ENMcrh-3" value="pushes&lt;br&gt;changes&lt;br&gt;to&lt;br&gt;SCIM&lt;br&gt;endpoints" style="edgeStyle=orthogonalEdgeStyle;rounded=0;orthogonalLoop=1;jettySize=auto;html=1;exitX=1;exitY=0.5;exitDx=0;exitDy=0;entryX=0;entryY=0.5;entryDx=0;entryDy=0;" edge="1" parent="1" source="IDwW-XjW6kwkG8ENMcrh-1" target="IDwW-XjW6kwkG8ENMcrh-2">
          <mxGeometry relative="1" as="geometry" />
        </mxCell>
        <mxCell id="IDwW-XjW6kwkG8ENMcrh-1" value="Directory Service" style="rounded=0;whiteSpace=wrap;html=1;" vertex="1" parent="1">
          <mxGeometry x="200" y="240" width="80" height="40" as="geometry" />
        </mxCell>
        <mxCell id="IDwW-XjW6kwkG8ENMcrh-2" value="relying &lt;br&gt;service" style="rounded=0;whiteSpace=wrap;html=1;" vertex="1" parent="1">
          <mxGeometry x="360" y="240" width="80" height="40" as="geometry" />
        </mxCell>
      </root>
    </mxGraphModel>
  </diagram>
  <diagram id="m8Lai1nQ3eDANq6POGLS" name="Page-9">
    <mxGraphModel dx="794" dy="511" grid="1" gridSize="10" guides="1" tooltips="1" connect="1" arrows="1" fold="1" page="1" pageScale="1" pageWidth="850" pageHeight="1100" math="0" shadow="0">
      <root>
        <mxCell id="0" />
        <mxCell id="1" parent="0" />
        <mxCell id="C7alxL74Upv2FC108NoI-1" value="has" style="edgeStyle=orthogonalEdgeStyle;rounded=0;orthogonalLoop=1;jettySize=auto;html=1;exitX=1;exitY=0.5;exitDx=0;exitDy=0;entryX=0;entryY=0.5;entryDx=0;entryDy=0;" edge="1" parent="1" source="C7alxL74Upv2FC108NoI-2" target="C7alxL74Upv2FC108NoI-7">
          <mxGeometry relative="1" as="geometry" />
        </mxCell>
        <mxCell id="C7alxL74Upv2FC108NoI-2" value="User" style="rounded=0;whiteSpace=wrap;html=1;" vertex="1" parent="1">
          <mxGeometry x="200" y="200" width="80" height="40" as="geometry" />
        </mxCell>
        <mxCell id="C7alxL74Upv2FC108NoI-3" value="Account" style="rounded=0;whiteSpace=wrap;html=1;" vertex="1" parent="1">
          <mxGeometry x="440" y="200" width="80" height="40" as="geometry" />
        </mxCell>
        <mxCell id="C7alxL74Upv2FC108NoI-4" value="as" style="edgeStyle=orthogonalEdgeStyle;rounded=0;orthogonalLoop=1;jettySize=auto;html=1;exitX=0.5;exitY=1;exitDx=0;exitDy=0;entryX=0.5;entryY=0;entryDx=0;entryDy=0;" edge="1" parent="1" source="C7alxL74Upv2FC108NoI-5" target="C7alxL74Upv2FC108NoI-8">
          <mxGeometry relative="1" as="geometry" />
        </mxCell>
        <mxCell id="C7alxL74Upv2FC108NoI-5" value="" style="rounded=0;whiteSpace=wrap;html=1;" vertex="1" parent="1">
          <mxGeometry x="320" y="200" width="80" height="40" as="geometry" />
        </mxCell>
        <mxCell id="C7alxL74Upv2FC108NoI-6" value="within" style="edgeStyle=orthogonalEdgeStyle;rounded=0;orthogonalLoop=1;jettySize=auto;html=1;exitX=1;exitY=0.5;exitDx=0;exitDy=0;entryX=0;entryY=0.5;entryDx=0;entryDy=0;" edge="1" parent="1" source="C7alxL74Upv2FC108NoI-7" target="C7alxL74Upv2FC108NoI-3">
          <mxGeometry relative="1" as="geometry" />
        </mxCell>
        <mxCell id="C7alxL74Upv2FC108NoI-7" value="Membership" style="rhombus;whiteSpace=wrap;html=1;" vertex="1" parent="1">
          <mxGeometry x="320" y="200" width="80" height="40" as="geometry" />
        </mxCell>
        <mxCell id="C7alxL74Upv2FC108NoI-8" value="Role" style="rounded=0;whiteSpace=wrap;html=1;" vertex="1" parent="1">
          <mxGeometry x="320" y="280" width="80" height="40" as="geometry" />
        </mxCell>
      </root>
    </mxGraphModel>
  </diagram>
</mxfile>
